<mxfile host="app.diagrams.net" modified="2023-02-26T14:32:59.681Z" agent="5.0 (Windows NT 10.0; Win64; x64) AppleWebKit/537.36 (KHTML, like Gecko) Chrome/110.0.0.0 Safari/537.36" etag="Fut95etaMKYKZtW1C9pm" version="20.8.23" type="github">
  <diagram name="第 1 页" id="8vjXtbW4XhxlFyZ9hgyT">
    <mxGraphModel dx="1621" dy="1650" grid="1" gridSize="10" guides="1" tooltips="1" connect="1" arrows="1" fold="1" page="1" pageScale="1" pageWidth="827" pageHeight="1169" math="0" shadow="0">
      <root>
        <mxCell id="0" />
        <mxCell id="1" parent="0" />
        <mxCell id="_2noMWRmmMPCMAu7wt3I-16" value="" style="rounded=0;whiteSpace=wrap;html=1;fontFamily=微软雅黑;" vertex="1" parent="1">
          <mxGeometry x="87.5" y="430" width="712.5" height="70" as="geometry" />
        </mxCell>
        <mxCell id="_2noMWRmmMPCMAu7wt3I-14" value="" style="rounded=0;whiteSpace=wrap;html=1;fontFamily=微软雅黑;" vertex="1" parent="1">
          <mxGeometry y="430" width="70" height="70" as="geometry" />
        </mxCell>
        <mxCell id="_2noMWRmmMPCMAu7wt3I-13" value="" style="rounded=0;whiteSpace=wrap;html=1;fontFamily=微软雅黑;" vertex="1" parent="1">
          <mxGeometry y="170" width="70" height="230" as="geometry" />
        </mxCell>
        <mxCell id="_2noMWRmmMPCMAu7wt3I-5" value="" style="rounded=0;whiteSpace=wrap;html=1;fontFamily=微软雅黑;" vertex="1" parent="1">
          <mxGeometry y="10" width="70" height="140" as="geometry" />
        </mxCell>
        <mxCell id="ErQYisSNtyv5BiWGh4sq-3" value="" style="rounded=0;whiteSpace=wrap;html=1;fontFamily=微软雅黑;" parent="1" diagramCategory="general" diagramName="Rectangle" vertex="1">
          <mxGeometry x="80" y="-200" width="530" height="190" as="geometry" />
        </mxCell>
        <mxCell id="ErQYisSNtyv5BiWGh4sq-4" value="MYSQL" style="shape=mxgraph.flowchart.direct_data;whiteSpace=wrap;html=1;fillColor=#FFCCCC;strokeColor=#000000;strokeWidth=2;fontFamily=微软雅黑;" parent="1" diagramCategory="Flowchart" diagramName="DirectData" vertex="1">
          <mxGeometry x="120" y="435" width="98" height="60" as="geometry" />
        </mxCell>
        <mxCell id="ErQYisSNtyv5BiWGh4sq-5" value="DDB" style="shape=mxgraph.flowchart.direct_data;whiteSpace=wrap;html=1;fillColor=#FFCCCC;strokeColor=#000000;strokeWidth=2;fontFamily=微软雅黑;" parent="1" diagramCategory="Flowchart" diagramName="DirectData" vertex="1">
          <mxGeometry x="277" y="435" width="98" height="60" as="geometry" />
        </mxCell>
        <mxCell id="ErQYisSNtyv5BiWGh4sq-6" value="前端埋点" style="shape=note;whiteSpace=wrap;html=1;backgroundOutline=1;darkOpacity=0.05;strokeColor=#000000;fillColor=#CCCCCC;fontFamily=微软雅黑;" parent="1" diagramCategory="general" diagramName="Note" vertex="1">
          <mxGeometry x="475" y="435" width="90" height="60" as="geometry" />
        </mxCell>
        <mxCell id="ErQYisSNtyv5BiWGh4sq-13" value="后端日志" style="shape=note;whiteSpace=wrap;html=1;backgroundOutline=1;darkOpacity=0.05;strokeColor=#000000;fillColor=#CCCCCC;fontFamily=微软雅黑;" parent="1" diagramCategory="general" diagramName="Note" vertex="1">
          <mxGeometry x="620" y="435" width="90" height="60" as="geometry" />
        </mxCell>
        <mxCell id="ErQYisSNtyv5BiWGh4sq-17" value="" style="rounded=0;whiteSpace=wrap;html=1;strokeColor=#990000;strokeWidth=3;dashed=1;fontFamily=微软雅黑;" parent="1" diagramCategory="general" diagramName="Rectangle" vertex="1">
          <mxGeometry x="80" y="170" width="720" height="230" as="geometry" />
        </mxCell>
        <mxCell id="ErQYisSNtyv5BiWGh4sq-18" value="移动数字工作台（vipapp）" style="rounded=0;whiteSpace=wrap;html=1;strokeColor=none;fillColor=#FFF2CC;fontFamily=微软雅黑;" parent="1" diagramCategory="general" diagramName="Rectangle" vertex="1">
          <mxGeometry x="87.5" y="-160" width="120" height="60" as="geometry" />
        </mxCell>
        <mxCell id="ErQYisSNtyv5BiWGh4sq-19" value="数字化运营工作台&lt;br&gt;（DMP/渠道投放）" style="rounded=0;whiteSpace=wrap;html=1;strokeColor=none;fillColor=#FFF2CC;fontFamily=微软雅黑;" parent="1" diagramCategory="general" diagramName="Rectangle" vertex="1">
          <mxGeometry x="220" y="-160" width="120" height="60" as="geometry" />
        </mxCell>
        <mxCell id="ErQYisSNtyv5BiWGh4sq-20" value="数字大屏" style="rounded=0;whiteSpace=wrap;html=1;strokeColor=none;fillColor=#FFF2CC;fontFamily=微软雅黑;" parent="1" diagramCategory="general" diagramName="Rectangle" vertex="1">
          <mxGeometry x="87.5" y="-90" width="120" height="60" as="geometry" />
        </mxCell>
        <mxCell id="ErQYisSNtyv5BiWGh4sq-21" value="" style="rounded=0;whiteSpace=wrap;html=1;fontFamily=微软雅黑;" parent="1" diagramCategory="general" diagramName="Rectangle" vertex="1">
          <mxGeometry x="620" y="-200" width="180" height="190" as="geometry" />
        </mxCell>
        <mxCell id="ErQYisSNtyv5BiWGh4sq-22" value="商城" style="rounded=0;whiteSpace=wrap;html=1;strokeColor=none;fillColor=#FFF2CC;fontFamily=微软雅黑;" parent="1" diagramCategory="general" diagramName="Rectangle" vertex="1">
          <mxGeometry x="480" y="-90" width="120" height="60" as="geometry" />
        </mxCell>
        <mxCell id="ErQYisSNtyv5BiWGh4sq-23" value="" style="rounded=0;whiteSpace=wrap;html=1;align=left;fontFamily=微软雅黑;" parent="1" diagramCategory="general" diagramName="Rectangle" vertex="1">
          <mxGeometry x="80" y="10" width="720" height="140" as="geometry" />
        </mxCell>
        <mxCell id="ErQYisSNtyv5BiWGh4sq-24" value="mysql" style="rounded=0;whiteSpace=wrap;html=1;fontFamily=微软雅黑;" parent="1" diagramCategory="general" diagramName="Rectangle" vertex="1">
          <mxGeometry x="180" y="65" width="100" height="50" as="geometry" />
        </mxCell>
        <mxCell id="ErQYisSNtyv5BiWGh4sq-25" value="网关服务" style="text;html=1;strokeColor=none;fillColor=none;align=center;verticalAlign=middle;whiteSpace=wrap;rounded=0;fontStyle=1;fontFamily=微软雅黑;" parent="1" diagramCategory="general" diagramName="text" vertex="1">
          <mxGeometry x="446" y="10" width="70" height="20" as="geometry" />
        </mxCell>
        <mxCell id="ErQYisSNtyv5BiWGh4sq-26" style="edgeStyle=orthogonalEdgeStyle;rounded=0;orthogonalLoop=1;jettySize=auto;html=1;exitX=0.5;exitY=1;exitDx=0;exitDy=0;fontFamily=微软雅黑;" parent="1" edge="1">
          <mxGeometry relative="1" as="geometry">
            <mxPoint x="534" y="70" as="sourcePoint" />
            <mxPoint x="534" y="70" as="targetPoint" />
          </mxGeometry>
        </mxCell>
        <mxCell id="ErQYisSNtyv5BiWGh4sq-28" value="门店系统" style="rounded=0;whiteSpace=wrap;html=1;strokeColor=none;fillColor=#FFF2CC;fontFamily=微软雅黑;" parent="1" diagramCategory="general" diagramName="Rectangle" vertex="1">
          <mxGeometry x="350" y="-90" width="120" height="60" as="geometry" />
        </mxCell>
        <mxCell id="ErQYisSNtyv5BiWGh4sq-29" value="舆情" style="rounded=0;whiteSpace=wrap;html=1;strokeColor=none;fillColor=#FFF2CC;fontFamily=微软雅黑;" parent="1" diagramCategory="general" diagramName="Rectangle" vertex="1">
          <mxGeometry x="350" y="-160" width="120" height="60" as="geometry" />
        </mxCell>
        <mxCell id="ErQYisSNtyv5BiWGh4sq-30" value="游戏" style="rounded=0;whiteSpace=wrap;html=1;strokeColor=none;fillColor=#FFF2CC;fontFamily=微软雅黑;" parent="1" diagramCategory="general" diagramName="Rectangle" vertex="1">
          <mxGeometry x="480" y="-160" width="120" height="60" as="geometry" />
        </mxCell>
        <mxCell id="ErQYisSNtyv5BiWGh4sq-31" value="风控" style="rounded=0;whiteSpace=wrap;html=1;strokeColor=none;fillColor=#FFF2CC;fontFamily=微软雅黑;" parent="1" diagramCategory="general" diagramName="Rectangle" vertex="1">
          <mxGeometry x="220" y="-90" width="120" height="60" as="geometry" />
        </mxCell>
        <mxCell id="ErQYisSNtyv5BiWGh4sq-32" value="标签看板" style="rounded=0;whiteSpace=wrap;html=1;strokeColor=none;fillColor=#FFF2CC;fontFamily=微软雅黑;" parent="1" diagramCategory="general" diagramName="Rectangle" vertex="1">
          <mxGeometry x="650" y="-160" width="120" height="60" as="geometry" />
        </mxCell>
        <mxCell id="ErQYisSNtyv5BiWGh4sq-33" value="风控看板" style="rounded=0;whiteSpace=wrap;html=1;strokeColor=none;fillColor=#FFF2CC;fontFamily=微软雅黑;" parent="1" diagramCategory="general" diagramName="Rectangle" vertex="1">
          <mxGeometry x="650" y="-90" width="120" height="60" as="geometry" />
        </mxCell>
        <mxCell id="ErQYisSNtyv5BiWGh4sq-34" value="平台&amp;amp;系统" style="text;html=1;strokeColor=none;fillColor=none;align=center;verticalAlign=middle;whiteSpace=wrap;rounded=0;fontStyle=1;fontFamily=微软雅黑;" parent="1" diagramCategory="general" diagramName="text" vertex="1">
          <mxGeometry x="317.75" y="-190" width="65" height="20" as="geometry" />
        </mxCell>
        <mxCell id="ErQYisSNtyv5BiWGh4sq-35" value="BI报表" style="text;html=1;strokeColor=none;fillColor=none;align=center;verticalAlign=middle;whiteSpace=wrap;rounded=0;fontFamily=微软雅黑;fontStyle=1" parent="1" diagramCategory="general" diagramName="text" vertex="1">
          <mxGeometry x="680" y="-190" width="40" height="20" as="geometry" />
        </mxCell>
        <mxCell id="ErQYisSNtyv5BiWGh4sq-36" value="" style="rounded=0;whiteSpace=wrap;html=1;fontFamily=微软雅黑;" parent="1" diagramCategory="general" diagramName="Rectangle" vertex="1">
          <mxGeometry x="94" y="37.5" width="246" height="92.5" as="geometry" />
        </mxCell>
        <mxCell id="ErQYisSNtyv5BiWGh4sq-37" value="mysql" style="rounded=0;whiteSpace=wrap;html=1;strokeColor=none;fillColor=#A9C4EB;fontFamily=微软雅黑;" parent="1" diagramCategory="general" diagramName="Rectangle" vertex="1">
          <mxGeometry x="110" y="60" width="100" height="50" as="geometry" />
        </mxCell>
        <mxCell id="ErQYisSNtyv5BiWGh4sq-38" value="doris" style="rounded=0;whiteSpace=wrap;html=1;strokeColor=none;fillColor=#A9C4EB;fontFamily=微软雅黑;" parent="1" diagramCategory="general" diagramName="Rectangle" vertex="1">
          <mxGeometry x="220" y="60" width="100" height="50" as="geometry" />
        </mxCell>
        <mxCell id="ErQYisSNtyv5BiWGh4sq-39" value="服务集市" style="text;html=1;strokeColor=none;fillColor=none;align=center;verticalAlign=middle;whiteSpace=wrap;rounded=0;fontFamily=微软雅黑;" parent="1" diagramCategory="general" diagramName="text" vertex="1">
          <mxGeometry x="110" y="37.5" width="55" height="20" as="geometry" />
        </mxCell>
        <mxCell id="ErQYisSNtyv5BiWGh4sq-40" value="" style="rounded=0;whiteSpace=wrap;html=1;fontFamily=微软雅黑;" parent="1" diagramCategory="general" diagramName="Rectangle" vertex="1">
          <mxGeometry x="350" y="37.5" width="239.37" height="92.5" as="geometry" />
        </mxCell>
        <mxCell id="ErQYisSNtyv5BiWGh4sq-42" value="" style="rounded=0;whiteSpace=wrap;html=1;strokeColor=none;fillColor=#A9C4EB;fontFamily=微软雅黑;" parent="1" diagramCategory="general" diagramName="Rectangle" vertex="1">
          <mxGeometry x="470" y="60" width="115.63" height="50" as="geometry" />
        </mxCell>
        <mxCell id="ErQYisSNtyv5BiWGh4sq-43" value="数据集市" style="text;html=1;strokeColor=none;fillColor=none;align=center;verticalAlign=middle;whiteSpace=wrap;rounded=0;fontFamily=微软雅黑;" parent="1" diagramCategory="general" diagramName="text" vertex="1">
          <mxGeometry x="367.5" y="37.5" width="55" height="20" as="geometry" />
        </mxCell>
        <mxCell id="ErQYisSNtyv5BiWGh4sq-72" value="权限管控" style="rounded=0;whiteSpace=wrap;html=1;fontFamily=微软雅黑;strokeColor=none;fillColor=#E6FFCC;" parent="1" diagramCategory="general" diagramName="Rectangle" vertex="1">
          <mxGeometry x="700" y="34.5" width="91" height="42.5" as="geometry" />
        </mxCell>
        <mxCell id="ErQYisSNtyv5BiWGh4sq-73" value="血缘上报" style="rounded=0;whiteSpace=wrap;html=1;fontFamily=微软雅黑;strokeColor=none;fillColor=#E6FFCC;" parent="1" diagramCategory="general" diagramName="Rectangle" vertex="1">
          <mxGeometry x="700" y="87.5" width="91" height="42.5" as="geometry" />
        </mxCell>
        <mxCell id="ErQYisSNtyv5BiWGh4sq-84" value="指标建设" style="rounded=0;whiteSpace=wrap;html=1;fontFamily=微软雅黑;" parent="1" diagramCategory="general" diagramName="Rectangle" vertex="1">
          <mxGeometry x="350" y="880" width="90" height="30" as="geometry" />
        </mxCell>
        <mxCell id="ErQYisSNtyv5BiWGh4sq-100" value="presto" style="text;html=1;strokeColor=none;fillColor=none;align=center;verticalAlign=middle;whiteSpace=wrap;rounded=0;fontFamily=微软雅黑;" parent="1" diagramCategory="general" diagramName="text" vertex="1">
          <mxGeometry x="508.5" y="57.5" width="40" height="20" as="geometry" />
        </mxCell>
        <mxCell id="ErQYisSNtyv5BiWGh4sq-101" value="hive" style="rounded=0;whiteSpace=wrap;html=1;strokeColor=none;fontFamily=微软雅黑;" parent="1" diagramCategory="general" diagramName="Rectangle" vertex="1">
          <mxGeometry x="478" y="77" width="42" height="30" as="geometry" />
        </mxCell>
        <mxCell id="ErQYisSNtyv5BiWGh4sq-102" value="iceberg" style="rounded=0;whiteSpace=wrap;html=1;strokeColor=none;fontFamily=微软雅黑;" parent="1" diagramCategory="general" diagramName="Rectangle" vertex="1">
          <mxGeometry x="534.63" y="77" width="44" height="30" as="geometry" />
        </mxCell>
        <mxCell id="ErQYisSNtyv5BiWGh4sq-104" value="监控" style="rounded=0;whiteSpace=wrap;html=1;fontFamily=微软雅黑;strokeColor=none;fillColor=#E6FFCC;" parent="1" diagramCategory="general" diagramName="Rectangle" vertex="1">
          <mxGeometry x="600" y="87.5" width="91" height="42.5" as="geometry" />
        </mxCell>
        <mxCell id="_2noMWRmmMPCMAu7wt3I-3" value="" style="rounded=0;whiteSpace=wrap;html=1;fontFamily=微软雅黑;" vertex="1" parent="1">
          <mxGeometry y="-200" width="70" height="190" as="geometry" />
        </mxCell>
        <mxCell id="ErQYisSNtyv5BiWGh4sq-11" value="&lt;span style=&quot;font-size: 18px;&quot;&gt;应用层&lt;/span&gt;" style="text;html=1;strokeColor=none;fillColor=none;align=center;verticalAlign=middle;whiteSpace=wrap;rounded=0;fontFamily=微软雅黑;" parent="1" diagramCategory="general" diagramName="text" vertex="1">
          <mxGeometry y="-120" width="70" height="20" as="geometry" />
        </mxCell>
        <mxCell id="ErQYisSNtyv5BiWGh4sq-9" value="&lt;font style=&quot;font-size: 18px;&quot;&gt;数据源&lt;/font&gt;" style="text;html=1;strokeColor=none;fillColor=none;align=center;verticalAlign=middle;whiteSpace=wrap;rounded=0;fontFamily=微软雅黑;" parent="1" diagramCategory="general" diagramName="text" vertex="1">
          <mxGeometry y="450" width="70" height="20" as="geometry" />
        </mxCell>
        <mxCell id="ErQYisSNtyv5BiWGh4sq-12" value="&lt;span style=&quot;font-size: 18px;&quot;&gt;数据层&lt;/span&gt;" style="text;html=1;strokeColor=none;fillColor=none;align=center;verticalAlign=middle;whiteSpace=wrap;rounded=0;fontFamily=微软雅黑;" parent="1" diagramCategory="general" diagramName="text" vertex="1">
          <mxGeometry x="-15" y="290" width="100" height="20" as="geometry" />
        </mxCell>
        <mxCell id="ErQYisSNtyv5BiWGh4sq-16" value="&lt;span style=&quot;font-size: 18px;&quot;&gt;查询层&lt;/span&gt;" style="text;html=1;strokeColor=none;fillColor=none;align=center;verticalAlign=middle;whiteSpace=wrap;rounded=0;fontFamily=微软雅黑;" parent="1" diagramCategory="general" diagramName="text" vertex="1">
          <mxGeometry y="60" width="70" height="20" as="geometry" />
        </mxCell>
        <mxCell id="_2noMWRmmMPCMAu7wt3I-10" value="值班运维" style="rounded=0;whiteSpace=wrap;html=1;fontFamily=微软雅黑;" diagramCategory="general" diagramName="Rectangle" vertex="1" parent="1">
          <mxGeometry x="483.5" y="890" width="90" height="30" as="geometry" />
        </mxCell>
        <mxCell id="_2noMWRmmMPCMAu7wt3I-11" value="数据治理" style="rounded=0;whiteSpace=wrap;html=1;fontFamily=微软雅黑;" diagramCategory="general" diagramName="Rectangle" vertex="1" parent="1">
          <mxGeometry x="483.5" y="830" width="90" height="30" as="geometry" />
        </mxCell>
        <mxCell id="_2noMWRmmMPCMAu7wt3I-12" value="航海日志" style="rounded=0;whiteSpace=wrap;html=1;fontFamily=微软雅黑;" diagramCategory="general" diagramName="Rectangle" vertex="1" parent="1">
          <mxGeometry x="350" y="830" width="90" height="30" as="geometry" />
        </mxCell>
        <mxCell id="_2noMWRmmMPCMAu7wt3I-21" value="doris" style="rounded=0;whiteSpace=wrap;html=1;strokeColor=none;fillColor=#A9C4EB;fontFamily=微软雅黑;" diagramCategory="general" diagramName="Rectangle" vertex="1" parent="1">
          <mxGeometry x="360" y="60" width="100" height="50" as="geometry" />
        </mxCell>
        <mxCell id="_2noMWRmmMPCMAu7wt3I-27" value="限流" style="rounded=0;whiteSpace=wrap;html=1;fontFamily=微软雅黑;strokeColor=none;fillColor=#E6FFCC;fillStyle=auto;" diagramCategory="general" diagramName="Rectangle" vertex="1" parent="1">
          <mxGeometry x="600" y="35" width="91" height="42.5" as="geometry" />
        </mxCell>
        <mxCell id="_2noMWRmmMPCMAu7wt3I-28" value="权限管控" style="rounded=0;whiteSpace=wrap;html=1;fontFamily=微软雅黑;strokeColor=none;fillColor=#E6FFCC;" diagramCategory="general" diagramName="Rectangle" vertex="1" parent="1">
          <mxGeometry x="700" y="34.5" width="91" height="42.5" as="geometry" />
        </mxCell>
      </root>
    </mxGraphModel>
  </diagram>
</mxfile>
